<svg width="24" height="14" viewBox="0 0 24 14" fill="none" xmlns="http://www.w3.org/2000/svg">
<path d="M1.81589 7.8707L20.1863 7.8707L16.7438 11.3092C15.7557 12.2973 17.2378 13.7834 18.2259 12.7953L21.3601 9.65715L23.4548 7.56242C23.6503 7.36613 23.7601 7.10038 23.7601 6.82334C23.7601 6.5463 23.6503 6.28055 23.4548 6.08425L18.222 0.85138C18.1234 0.750221 18.0053 0.670061 17.8749 0.615723C17.7445 0.561385 17.6044 0.533992 17.4631 0.535194C17.2545 0.535741 17.0507 0.598597 16.878 0.715704C16.7054 0.83281 16.5716 0.998829 16.4939 1.19247C16.4162 1.38612 16.398 1.59856 16.4419 1.80256C16.4857 2.00656 16.5895 2.19282 16.7399 2.33745L20.1902 5.77597L1.76056 5.77597C0.310054 5.85107 0.416767 7.94185 1.81589 7.8707Z" fill="#00296B"/>
</svg>
