<svg width="22" height="22" viewBox="0 0 22 22" fill="none" xmlns="http://www.w3.org/2000/svg">
<path d="M20.896 10.9956H2.93657V2.93217C2.93657 1.71763 3.92115 0.733054 5.13569 0.733054H5.86874V2.2358C5.01538 2.41001 4.4025 3.16076 4.40268 4.03173C4.40268 4.12894 4.44129 4.22216 4.51002 4.29089C4.57876 4.35962 4.67198 4.39824 4.76918 4.39824H7.70135C7.79856 4.39824 7.89178 4.35962 7.96051 4.29089C8.02925 4.22216 8.06786 4.12894 8.06786 4.03173C8.06803 3.16076 7.45516 2.40997 6.6018 2.2358V0.366506C6.6018 0.269302 6.56318 0.17608 6.49445 0.107347C6.42571 0.0386139 6.33249 0 6.23529 0L5.13573 0C3.51629 0 2.20351 1.31277 2.20351 2.93217V10.9956H1.10395C0.496705 10.9956 0.00439453 11.4879 0.00439453 12.0952C0.00439453 12.7024 0.496662 13.1947 1.10395 13.1947C1.20291 15.863 2.34646 18.6925 4.05812 19.5318C3.50469 20.1229 3.53523 21.0506 4.12624 21.6041C4.7173 22.1575 5.64505 22.127 6.19848 21.5359C6.64239 21.0619 6.72146 20.3522 6.39284 19.7921H15.6035C15.4717 20.0141 15.4009 20.267 15.3982 20.5251C15.3934 21.3348 16.0459 21.9951 16.8556 21.9999C17.6653 22.0047 18.3255 21.3522 18.3303 20.5425C18.3325 20.1674 18.1909 19.8057 17.9345 19.5319C19.6462 18.6926 20.7897 15.863 20.896 13.1948C21.5032 13.1948 21.9955 12.7024 21.9955 12.0952C21.9956 11.4879 21.5033 10.9956 20.896 10.9956ZM6.60012 2.99282C6.75537 3.04743 6.89638 3.13619 7.01275 3.25256C7.12912 3.36893 7.21788 3.50994 7.27248 3.66518H5.19801C5.3995 3.09234 6.02728 2.79129 6.60012 2.99282ZM12.0996 11.7287H17.2308V15.7604H12.0996V11.7287ZM0.737449 12.0952C0.737449 11.998 0.776063 11.9047 0.844796 11.836C0.913529 11.7673 1.00675 11.7287 1.10395 11.7287H11.3665V12.4617H1.10395C1.00675 12.4617 0.913525 12.4231 0.844793 12.3543C0.776061 12.2856 0.737449 12.1924 0.737449 12.0952ZM5.13569 21.2581C4.73083 21.2581 4.40263 20.9299 4.40263 20.5251C4.40263 20.1202 4.73083 19.792 5.13569 19.792C5.54055 19.792 5.86874 20.1202 5.86874 20.5251C5.86874 20.9299 5.54055 21.2581 5.13569 21.2581ZM16.8643 21.2581C16.4595 21.2581 16.1313 20.9299 16.1313 20.5251C16.1313 20.1202 16.4595 19.792 16.8643 19.792C17.2692 19.792 17.5974 20.1202 17.5974 20.5251C17.5974 20.9299 17.2692 21.2581 16.8643 21.2581ZM16.8643 19.059H5.13569C3.50469 19.059 1.9653 16.2588 1.83701 13.1947H11.3665V16.8599C11.3665 16.9571 11.4052 17.0503 11.4739 17.1191C11.5426 17.1878 11.6358 17.2264 11.733 17.2264C11.8302 17.2264 11.9235 17.1878 11.9922 17.1191C12.0609 17.0503 12.0996 16.9571 12.0996 16.8599V16.4934H12.8326V16.8599C12.8326 16.9571 12.8712 17.0503 12.94 17.1191C13.0087 17.1878 13.1019 17.2264 13.1991 17.2264C13.2963 17.2264 13.3895 17.1878 13.4583 17.1191C13.527 17.0503 13.5656 16.9571 13.5656 16.8599V16.4934H14.2987V16.8599C14.2987 16.9571 14.3373 17.0503 14.406 17.1191C14.4748 17.1878 14.568 17.2264 14.6652 17.2264C14.7624 17.2264 14.8556 17.1878 14.9243 17.1191C14.9931 17.0503 15.0317 16.9571 15.0317 16.8599V16.4934H15.7647V16.8599C15.7647 16.9571 15.8034 17.0503 15.8721 17.1191C15.9408 17.1878 16.034 17.2264 16.1312 17.2264C16.2284 17.2264 16.3217 17.1878 16.3904 17.1191C16.4591 17.0503 16.4977 16.9571 16.4977 16.8599V16.4934H17.2308V16.8599C17.2308 16.9571 17.2694 17.0503 17.3381 17.1191C17.4069 17.1878 17.5001 17.2264 17.5973 17.2264C17.6945 17.2264 17.7877 17.1878 17.8565 17.1191C17.9252 17.0503 17.9638 16.9571 17.9638 16.8599V13.1947H20.1629C20.0347 16.2588 18.4953 19.059 16.8643 19.059ZM20.896 12.4617H17.9639V11.7286H20.896C20.9926 11.7297 21.0848 11.7687 21.1526 11.8374C21.2205 11.906 21.2586 11.9986 21.2586 12.0951C21.2586 12.1917 21.2205 12.2843 21.1526 12.3529C21.0848 12.4215 20.9926 12.4606 20.896 12.4617Z" fill="#D3B24F"/>
<path d="M6.60166 5.49736C6.60166 5.40016 6.56305 5.30694 6.49432 5.23821C6.42558 5.16947 6.33236 5.13086 6.23516 5.13086C6.13796 5.13086 6.04473 5.16947 5.976 5.23821C5.90727 5.30694 5.86865 5.40016 5.86865 5.49736V5.86387C5.86865 6.0663 6.03273 6.23038 6.23516 6.23038C6.43759 6.23038 6.60166 6.0663 6.60166 5.86387V5.49736ZM6.60166 7.32998C6.60166 7.23278 6.56305 7.13955 6.49432 7.07082C6.42558 7.00209 6.33236 6.96347 6.23516 6.96347C6.13796 6.96347 6.04473 7.00209 5.976 7.07082C5.90727 7.13955 5.86865 7.23278 5.86865 7.32998V7.69648C5.86865 7.89891 6.03273 8.06299 6.23516 8.06299C6.43759 8.06299 6.60166 7.89891 6.60166 7.69648V7.32998ZM6.23516 8.79604C6.13796 8.79604 6.04473 8.83466 5.976 8.90339C5.90727 8.97212 5.86865 9.06535 5.86865 9.16255V9.52906C5.86865 9.73149 6.03273 9.89556 6.23516 9.89556C6.43759 9.89556 6.60166 9.73149 6.60166 9.52906V9.16255C6.60166 9.06535 6.56305 8.97212 6.49432 8.90339C6.42558 8.83466 6.33236 8.79604 6.23516 8.79604ZM8.06777 5.49736C8.06777 5.29493 7.9037 5.13086 7.70127 5.13086C7.49884 5.13086 7.33476 5.29493 7.33476 5.49736V5.86387C7.33476 6.0663 7.49884 6.23038 7.70127 6.23038C7.9037 6.23038 8.06777 6.0663 8.06777 5.86387V5.49736ZM8.06777 7.32998C8.06777 7.12755 7.9037 6.96347 7.70127 6.96347C7.49884 6.96347 7.33476 7.12755 7.33476 7.32998V7.69648C7.33476 7.89891 7.49884 8.06299 7.70127 8.06299C7.9037 8.06299 8.06777 7.89891 8.06777 7.69648V7.32998ZM7.70122 8.79604C7.60402 8.79604 7.5108 8.83466 7.44207 8.90339C7.37333 8.97212 7.33472 9.06535 7.33472 9.16255V9.52906C7.33472 9.73149 7.49879 9.89556 7.70122 9.89556C7.90365 9.89556 8.06773 9.73149 8.06773 9.52906V9.16255C8.06773 9.06535 8.02912 8.97212 7.96038 8.90339C7.89165 8.83466 7.79843 8.79604 7.70122 8.79604ZM5.1356 5.49736C5.1356 5.29493 4.97152 5.13086 4.76909 5.13086C4.56666 5.13086 4.40259 5.29493 4.40259 5.49736V5.86387C4.40259 6.0663 4.56666 6.23038 4.76909 6.23038C4.97152 6.23038 5.1356 6.0663 5.1356 5.86387V5.49736ZM5.1356 7.32998C5.1356 7.12755 4.97152 6.96347 4.76909 6.96347C4.56666 6.96347 4.40259 7.12755 4.40259 7.32998V7.69648C4.40259 7.89891 4.56666 8.06299 4.76909 8.06299C4.97152 8.06299 5.1356 7.89891 5.1356 7.69648V7.32998ZM4.76909 8.79604C4.67189 8.79604 4.57867 8.83466 4.50993 8.90339C4.4412 8.97212 4.40259 9.06535 4.40259 9.16255V9.52906C4.40259 9.73149 4.56666 9.89556 4.76909 9.89556C4.97152 9.89556 5.1356 9.73149 5.1356 9.52906V9.16255C5.13559 9.06535 5.09697 8.97213 5.02824 8.9034C4.95951 8.83467 4.86629 8.79606 4.76909 8.79604Z" fill="#D3B24F"/>
</svg>
