<svg width="20" height="14" viewBox="0 0 20 14" fill="none" xmlns="http://www.w3.org/2000/svg">
<path d="M18.25 6.6975V2.875C18.25 2.14565 17.9603 1.44618 17.4445 0.930456C16.9288 0.414731 16.2293 0.125 15.5 0.125H4.5C3.77065 0.125 3.07118 0.414731 2.55546 0.930456C2.03973 1.44618 1.75 2.14565 1.75 2.875V6.6975C1.33437 6.93745 0.988774 7.282 0.747555 7.69689C0.506337 8.11179 0.377897 8.58259 0.375 9.0625V13.1875C0.375 13.3698 0.447433 13.5447 0.576364 13.6736C0.705295 13.8026 0.880164 13.875 1.0625 13.875C1.24484 13.875 1.4197 13.8026 1.54864 13.6736C1.67757 13.5447 1.75 13.3698 1.75 13.1875V12.5H18.25V13.1875C18.25 13.3698 18.3224 13.5447 18.4514 13.6736C18.5803 13.8026 18.7552 13.875 18.9375 13.875C19.1198 13.875 19.2947 13.8026 19.4236 13.6736C19.5526 13.5447 19.625 13.3698 19.625 13.1875V9.0625C19.6221 8.58259 19.4937 8.11179 19.2524 7.69689C19.0112 7.282 18.6656 6.93745 18.25 6.6975ZM3.125 2.875C3.125 2.51033 3.26987 2.16059 3.52773 1.90273C3.78559 1.64487 4.13533 1.5 4.5 1.5H15.5C15.8647 1.5 16.2144 1.64487 16.4723 1.90273C16.7301 2.16059 16.875 2.51033 16.875 2.875V6.3125H15.5V5.625C15.5 5.07799 15.2827 4.55339 14.8959 4.16659C14.5091 3.7798 13.9845 3.5625 13.4375 3.5625H11.375C10.8662 3.56553 10.3765 3.75652 10 4.09875C9.6235 3.75652 9.13379 3.56553 8.625 3.5625H6.5625C6.01549 3.5625 5.49089 3.7798 5.10409 4.16659C4.7173 4.55339 4.5 5.07799 4.5 5.625V6.3125H3.125V2.875ZM5.875 6.3125V5.625C5.875 5.44266 5.94743 5.2678 6.07636 5.13886C6.2053 5.00993 6.38016 4.9375 6.5625 4.9375H8.625C8.80734 4.9375 8.9822 5.00993 9.11114 5.13886C9.24007 5.2678 9.3125 5.44266 9.3125 5.625V6.3125H5.875ZM10.6875 5.625C10.6875 5.44266 10.7599 5.2678 10.8889 5.13886C11.0178 5.00993 11.1927 4.9375 11.375 4.9375H13.4375C13.6198 4.9375 13.7947 5.00993 13.9236 5.13886C14.0526 5.2678 14.125 5.44266 14.125 5.625V6.3125H10.6875V5.625ZM1.75 9.0625C1.75 8.69783 1.89487 8.34809 2.15273 8.09023C2.41059 7.83237 2.76033 7.6875 3.125 7.6875H16.875C17.2397 7.6875 17.5894 7.83237 17.8473 8.09023C18.1051 8.34809 18.25 8.69783 18.25 9.0625V11.125H1.75V9.0625Z" fill="#D3B24F"/>
</svg>
