<svg width="11" height="7" viewBox="0 0 11 7" fill="none" xmlns="http://www.w3.org/2000/svg">
<path d="M6.05866 6.29255L10.5087 1.84242C10.6117 1.7395 10.6685 1.6021 10.6685 1.4556C10.6685 1.30909 10.6117 1.1717 10.5087 1.06877L10.1811 0.74105C9.96757 0.527799 9.62058 0.527799 9.40741 0.74105L5.67053 4.47793L1.9295 0.736903C1.8265 0.633977 1.68918 0.577148 1.54276 0.577148C1.39618 0.577148 1.25886 0.633977 1.15577 0.736903L0.828212 1.06462C0.725205 1.16763 0.668458 1.30495 0.668458 1.45145C0.668458 1.59795 0.725205 1.73535 0.828212 1.83828L5.28232 6.29255C5.38565 6.39572 5.52362 6.45238 5.67029 6.45206C5.81752 6.45238 5.95541 6.39572 6.05866 6.29255Z" fill="#D3B24F"/>
</svg>
