<svg width="22" height="13" viewBox="0 0 22 13" fill="none" xmlns="http://www.w3.org/2000/svg">
<path d="M1.68002 7.20595L18.5153 7.20595L15.3605 10.3571C14.455 11.2626 15.8132 12.6245 16.7188 11.719L19.591 8.84312L21.5107 6.92343C21.6899 6.74354 21.7905 6.5 21.7905 6.24611C21.7905 5.99222 21.6899 5.74868 21.5107 5.56879L16.7151 0.773197C16.6248 0.680492 16.5165 0.60703 16.397 0.557232C16.2775 0.507435 16.1492 0.482332 16.0197 0.483433C15.8285 0.483934 15.6418 0.541538 15.4835 0.648859C15.3252 0.756179 15.2026 0.908324 15.1314 1.08579C15.0602 1.26325 15.0436 1.45794 15.0838 1.64489C15.124 1.83184 15.219 2.00254 15.3569 2.13509L18.5189 5.28627L1.62931 5.28627C0.300017 5.35509 0.397812 7.27115 1.68002 7.20595Z" fill="white"/>
</svg>
