<svg width="13" height="13" viewBox="0 0 13 13" fill="none" xmlns="http://www.w3.org/2000/svg">
<path d="M6.50041 4.11523C5.18481 4.11523 4.11621 5.18383 4.11621 6.49943C4.11621 7.81503 5.18481 8.88623 6.50041 8.88623C7.81601 8.88623 8.88721 7.81503 8.88721 6.49943C8.88721 5.18383 7.81601 4.11523 6.50041 4.11523Z" fill="white"/>
<path d="M10.0984 0H2.9016C1.3026 0 0 1.3026 0 2.9016V10.0984C0 11.7 1.3026 13 2.9016 13H10.0984C11.7 13 13 11.7 13 10.0984V2.9016C13 1.3026 11.7 0 10.0984 0ZM6.5 10.712C4.1782 10.712 2.288 8.8218 2.288 6.5C2.288 4.1782 4.1782 2.2906 6.5 2.2906C8.8218 2.2906 10.712 4.1782 10.712 6.5C10.712 8.8218 8.8218 10.712 6.5 10.712ZM10.8004 3.055C10.309 3.055 9.9086 2.6572 9.9086 2.1658C9.9086 1.6744 10.309 1.274 10.8004 1.274C11.2918 1.274 11.6922 1.6744 11.6922 2.1658C11.6922 2.6572 11.2918 3.055 10.8004 3.055Z" fill="white"/>
</svg>
