<svg width="18" height="22" viewBox="0 0 18 22" fill="none" xmlns="http://www.w3.org/2000/svg">
<path d="M8.99974 5.37109C8.29163 5.37109 7.59941 5.58108 7.01063 5.97448C6.42185 6.36789 5.96295 6.92706 5.69197 7.58128C5.42098 8.23549 5.35008 8.95537 5.48823 9.64989C5.62638 10.3444 5.96737 10.9823 6.46808 11.4831C6.9688 11.9838 7.60675 12.3248 8.30126 12.4629C8.99577 12.6011 9.71565 12.5302 10.3699 12.2592C11.0241 11.9882 11.5833 11.5293 11.9767 10.9405C12.3701 10.3517 12.5801 9.65952 12.5801 8.9514C12.5801 8.00185 12.2028 7.09118 11.5314 6.41974C10.86 5.7483 9.9493 5.37109 8.99974 5.37109ZM8.99974 10.7416C8.64568 10.7416 8.29958 10.6366 8.00519 10.4399C7.7108 10.2432 7.48135 9.96357 7.34586 9.63646C7.21036 9.30936 7.17491 8.94942 7.24399 8.60216C7.31306 8.2549 7.48356 7.93593 7.73391 7.68557C7.98427 7.43521 8.30325 7.26472 8.6505 7.19564C8.99776 7.12657 9.3577 7.16202 9.68481 7.29752C10.0119 7.43301 10.2915 7.66246 10.4882 7.95685C10.6849 8.25124 10.7899 8.59734 10.7899 8.9514C10.7899 9.42618 10.6013 9.88151 10.2656 10.2172C9.92985 10.553 9.47452 10.7416 8.99974 10.7416Z" fill="white"/>
<path d="M9 21.4836C8.24629 21.4875 7.50263 21.3107 6.83129 20.9681C6.15994 20.6255 5.58044 20.1271 5.14132 19.5145C1.73018 14.8091 0 11.2717 0 9C0 6.61305 0.948211 4.32387 2.63604 2.63604C4.32387 0.948212 6.61305 0 9 0C11.3869 0 13.6761 0.948212 15.364 2.63604C17.0518 4.32387 18 6.61305 18 9C18 11.2717 16.2698 14.8091 12.8587 19.5145C12.4196 20.1271 11.8401 20.6255 11.1687 20.9681C10.4974 21.3107 9.75371 21.4875 9 21.4836ZM9 1.95395C7.13145 1.95609 5.34005 2.69931 4.01878 4.02057C2.69752 5.34184 1.95429 7.13324 1.95216 9.00179C1.95216 10.8009 3.64654 14.1279 6.72203 18.3697C6.98312 18.7293 7.32564 19.022 7.72157 19.2238C8.11751 19.4256 8.5556 19.5308 9 19.5308C9.4444 19.5308 9.88249 19.4256 10.2784 19.2238C10.6744 19.022 11.0169 18.7293 11.278 18.3697C14.3535 14.1279 16.0478 10.8009 16.0478 9.00179C16.0457 7.13324 15.3025 5.34184 13.9812 4.02057C12.66 2.69931 10.8685 1.95609 9 1.95395Z" fill="white"/>
</svg>
