<svg width="25" height="21" viewBox="0 0 25 21" fill="none" xmlns="http://www.w3.org/2000/svg">
<path d="M19.0371 0.111328C20.707 0.111328 22.043 0.723633 23.0449 1.94824C24.0098 3.20996 24.4922 4.69434 24.4922 6.40137C24.4922 7.81152 24.2324 9.12891 23.7129 10.3535C23.1934 11.5781 22.5439 12.6914 21.7646 13.6934C20.9482 14.6953 20.0947 15.5674 19.2041 16.3096C18.2764 17.0889 17.4229 17.7383 16.6436 18.2578C15.8643 18.8145 15.2334 19.2227 14.751 19.4824C14.2314 19.7422 13.9902 19.8721 14.0273 19.8721L12.7471 18.1465C13.0811 17.998 13.5264 17.7012 14.083 17.2559C14.6396 16.8477 15.1963 16.3467 15.7529 15.7529C16.2725 15.1592 16.7363 14.5098 17.1445 13.8047C17.5527 13.1367 17.7568 12.4873 17.7568 11.8564C17.7568 11.4854 17.5342 11.1143 17.0889 10.7432C16.6436 10.4092 16.1611 10.001 15.6416 9.51855C15.1221 9.07324 14.6396 8.5166 14.1943 7.84863C13.749 7.21777 13.5264 6.43848 13.5264 5.51074C13.5264 4.69433 13.6934 3.95215 14.0273 3.28418C14.3242 2.61621 14.7324 2.04101 15.252 1.55859C15.7344 1.11328 16.3096 0.760741 16.9775 0.500976C17.6455 0.24121 18.332 0.111328 19.0371 0.111328ZM5.34375 -1.67401e-06C6.19727 -1.59939e-06 6.97656 0.185545 7.68164 0.556639C8.38672 0.927733 8.99903 1.42871 9.51856 2.05957C10.0381 2.69043 10.4463 3.41406 10.7432 4.23047C11.0029 5.08398 11.1328 5.99316 11.1328 6.95801C11.1328 8.88769 10.7246 10.6689 9.9082 12.3018C9.05469 13.9717 8.12695 15.4004 7.125 16.5879C5.9375 17.998 4.58301 19.2783 3.06152 20.4287L1.44727 18.9258C1.78125 18.7031 2.18945 18.3506 2.67188 17.8682C3.11719 17.3857 3.54395 16.8105 3.95215 16.1426C4.32324 15.5117 4.65723 14.8437 4.9541 14.1387C5.21387 13.4336 5.34375 12.7471 5.34375 12.0791C5.34375 11.6338 5.06543 11.2627 4.50879 10.9658C3.95215 10.6689 3.33984 10.2978 2.67188 9.85254C2.00391 9.40722 1.3916 8.83203 0.834962 8.12695C0.278321 7.45898 1.21658e-06 6.51269 1.32364e-06 5.28808C1.38852e-06 4.5459 0.148439 3.85937 0.445314 3.22851C0.742189 2.59765 1.15039 2.04101 1.66992 1.55859C2.15235 1.07617 2.72754 0.686522 3.39551 0.389647C4.02637 0.129881 4.67578 -1.73241e-06 5.34375 -1.67401e-06Z" fill="white"/>
</svg>
