<svg width="95" height="15" viewBox="0 0 95 15" fill="none" xmlns="http://www.w3.org/2000/svg">
<path d="M15 5.5578H9.2705L7.5 0L5.7295 5.5578H0L4.63525 8.99298L2.86475 14.5505L7.5 11.1159L12.1353 14.5505L10.3647 8.99324L15 5.5578Z" fill="#D3B24F"/>
<path d="M55 5.5578H49.2705L47.5 0L45.7295 5.5578H40L44.6353 8.99298L42.8647 14.5505L47.5 11.1159L52.1353 14.5505L50.3647 8.99324L55 5.5578Z" fill="#D3B24F"/>
<path d="M35 5.5578H29.2705L27.5 0L25.7295 5.5578H20L24.6353 8.99298L22.8647 14.5505L27.5 11.1159L32.1353 14.5505L30.3647 8.99324L35 5.5578Z" fill="#D3B24F"/>
<path d="M75 5.5578H69.2705L67.5 0L65.7295 5.5578H60L64.6353 8.99298L62.8647 14.5505L67.5 11.1159L72.1353 14.5505L70.3647 8.99324L75 5.5578Z" fill="#D3B24F"/>
<path d="M95 5.5578H89.2705L87.5 0L85.7295 5.5578H80L84.6353 8.99298L82.8647 14.5505L87.5 11.1159L92.1353 14.5505L90.3647 8.99324L95 5.5578Z" fill="#A0A0A0"/>
</svg>
