<svg width="18" height="18" viewBox="0 0 18 18" fill="none" xmlns="http://www.w3.org/2000/svg">
<g clip-path="url(#clip0_126_181)">
<path d="M1.73933 8.30933H6.56365C7.51449 8.30933 8.28809 7.53574 8.28809 6.58489V1.76057C8.28809 0.809696 7.51449 0.0361328 6.56365 0.0361328H1.73933C0.788486 0.0361328 0.0148926 0.809696 0.0148926 1.76057V6.58489C0.0148926 7.53574 0.788486 8.30933 1.73933 8.30933ZM1.28553 1.76057C1.28553 1.50994 1.4887 1.30677 1.73933 1.30677H6.56365C6.81428 1.30677 7.01745 1.50994 7.01745 1.76057V6.58489C7.01745 6.83552 6.81428 7.03869 6.56365 7.03869H1.73933C1.4887 7.03869 1.28553 6.83552 1.28553 6.58489V1.76057Z" fill="#D3B24F"/>
<path d="M6.56359 8.32434H1.73927C0.780237 8.32434 0 7.5441 0 6.58507V1.76075C0 0.801692 0.780237 0.0214844 1.73927 0.0214844H6.56359C7.52262 0.0214844 8.30286 0.801722 8.30286 1.76075V6.58507C8.30286 7.5441 7.52262 8.32434 6.56359 8.32434ZM1.73927 0.0511444C0.79658 0.0511444 0.02966 0.818064 0.02966 1.76075V6.58507C0.02966 7.52776 0.79658 8.29468 1.73927 8.29468H6.56359C7.50628 8.29468 8.2732 7.52776 8.2732 6.58507V1.76075C8.2732 0.818064 7.50628 0.0511444 6.56359 0.0511444H1.73927ZM6.56359 7.05367H1.73927C1.48087 7.05367 1.27064 6.84344 1.27064 6.58504V1.76075C1.27064 1.50235 1.48087 1.29212 1.73927 1.29212H6.56359C6.82199 1.29212 7.03222 1.50235 7.03222 1.76075V6.58507C7.03222 6.84347 6.82199 7.05367 6.56359 7.05367ZM1.73927 1.32178C1.49721 1.32178 1.3003 1.51869 1.3003 1.76075V6.58507C1.3003 6.82713 1.49721 7.02404 1.73927 7.02404H6.56359C6.80565 7.02404 7.00256 6.82713 7.00256 6.58507V1.76075C7.00256 1.51869 6.80565 1.32178 6.56359 1.32178H1.73927ZM16.2608 0.0363144H11.4364C10.4856 0.0363144 9.71197 0.809908 9.71197 1.76075V6.58507C9.71197 7.53592 10.4856 8.30951 11.4364 8.30951H16.2608C17.2116 8.30951 17.9852 7.53592 17.9852 6.58507V1.76075C17.9852 0.809878 17.2116 0.0363144 16.2608 0.0363144ZM16.7145 6.58507C16.7145 6.8357 16.5114 7.03887 16.2608 7.03887H11.4364C11.1858 7.03887 10.9826 6.8357 10.9826 6.58507V1.76075C10.9826 1.51012 11.1858 1.30695 11.4364 1.30695H16.2608C16.5114 1.30695 16.7145 1.51012 16.7145 1.76075V6.58507Z" fill="#D3B24F"/>
<path d="M16.2608 8.32434H11.4365C10.4774 8.32434 9.69721 7.5441 9.69721 6.58507V1.76075C9.69721 0.801722 10.4774 0.0214844 11.4365 0.0214844H16.2608C17.2198 0.0214844 18.0001 0.801722 18.0001 1.76075V6.58507C18.0001 7.5441 17.2198 8.32434 16.2608 8.32434ZM11.4365 0.0511444C10.4938 0.0511444 9.72687 0.818064 9.72687 1.76075V6.58507C9.72687 7.52776 10.4938 8.29468 11.4365 8.29468H16.2608C17.2035 8.29468 17.9704 7.52776 17.9704 6.58507V1.76075C17.9704 0.818064 17.2035 0.0511444 16.2608 0.0511444H11.4365ZM16.2608 7.05367H11.4365C11.1781 7.05367 10.9678 6.84344 10.9678 6.58504V1.76075C10.9678 1.50235 11.1781 1.29212 11.4365 1.29212H16.2608C16.5192 1.29212 16.7294 1.50235 16.7294 1.76075V6.58507C16.7294 6.84347 16.5192 7.05367 16.2608 7.05367ZM11.4365 1.32178C11.1944 1.32178 10.9975 1.51869 10.9975 1.76075V6.58507C10.9975 6.82713 11.1944 7.02404 11.4365 7.02404H16.2608C16.5029 7.02404 16.6998 6.82713 16.6998 6.58507V1.76075C16.6998 1.51869 16.5029 1.32178 16.2608 1.32178H11.4365ZM1.73933 17.9639H6.56365C7.51449 17.9639 8.28809 17.1904 8.28809 16.2395V11.4152C8.28809 10.4643 7.51449 9.69075 6.56365 9.69075H1.73933C0.788486 9.69075 0.0148926 10.4643 0.0148926 11.4152V16.2395C0.0148926 17.1904 0.788486 17.9639 1.73933 17.9639ZM1.28553 11.4152C1.28553 11.1646 1.4887 10.9614 1.73933 10.9614H6.56365C6.81428 10.9614 7.01745 11.1646 7.01745 11.4152V16.2395C7.01745 16.4901 6.81428 16.6933 6.56365 16.6933H1.73933C1.4887 16.6933 1.28553 16.4901 1.28553 16.2395V11.4152Z" fill="#D3B24F"/>
<path d="M6.56359 17.9786H1.73927C0.780237 17.9786 0 17.1984 0 16.2394V11.4151C0 10.456 0.780237 9.67578 1.73927 9.67578H6.56359C7.52262 9.67578 8.30286 10.456 8.30286 11.4151V16.2394C8.30286 17.1984 7.52262 17.9786 6.56359 17.9786ZM1.73927 9.70547C0.79658 9.70547 0.02966 10.4724 0.02966 11.4151V16.2394C0.02966 17.1821 0.79658 17.949 1.73927 17.949H6.56359C7.50628 17.949 8.2732 17.1821 8.2732 16.2394V11.4151C8.2732 10.4724 7.50628 9.70544 6.56359 9.70544H1.73927V9.70547ZM6.56359 16.708H1.73927C1.48087 16.708 1.27064 16.4978 1.27064 16.2394V11.4151C1.27064 11.1566 1.48087 10.9464 1.73927 10.9464H6.56359C6.82199 10.9464 7.03222 11.1566 7.03222 11.4151V16.2394C7.03222 16.4978 6.82199 16.708 6.56359 16.708ZM1.73927 10.9761C1.49721 10.9761 1.3003 11.173 1.3003 11.4151V16.2394C1.3003 16.4814 1.49721 16.6783 1.73927 16.6783H6.56359C6.80565 16.6783 7.00256 16.4814 7.00256 16.2394V11.4151C7.00256 11.173 6.80565 10.9761 6.56359 10.9761H1.73927ZM16.2608 9.69064H11.4364C10.4856 9.69064 9.71197 10.4642 9.71197 11.4151V16.2394C9.71197 17.1903 10.4856 17.9638 11.4364 17.9638H16.2608C17.2116 17.9638 17.9852 17.1903 17.9852 16.2394V11.4151C17.9852 10.4642 17.2116 9.69064 16.2608 9.69064ZM16.7145 16.2394C16.7145 16.49 16.5114 16.6932 16.2608 16.6932H11.4364C11.1858 16.6932 10.9826 16.49 10.9826 16.2394V11.4151C10.9826 11.1645 11.1858 10.9612 11.4364 10.9612H16.2608C16.5114 10.9612 16.7145 11.1645 16.7145 11.4151V16.2394Z" fill="#D3B24F"/>
<path d="M16.2609 17.9786H11.4366C10.4775 17.9786 9.69727 17.1984 9.69727 16.2394V11.4151C9.69727 10.456 10.4775 9.67578 11.4366 9.67578H16.2609C17.2199 9.67578 18.0001 10.456 18.0001 11.4151V16.2394C18.0001 17.1984 17.2199 17.9786 16.2609 17.9786ZM11.4366 9.70547C10.4939 9.70547 9.72693 10.4724 9.72693 11.4151V16.2394C9.72693 17.1821 10.4938 17.949 11.4366 17.949H16.2609C17.2035 17.949 17.9705 17.1821 17.9705 16.2394V11.4151C17.9705 10.4724 17.2036 9.70544 16.2609 9.70544H11.4366V9.70547ZM16.2609 16.708H11.4366C11.1781 16.708 10.9679 16.4978 10.9679 16.2394V11.4151C10.9679 11.1566 11.1781 10.9464 11.4366 10.9464H16.2609C16.5193 10.9464 16.7295 11.1566 16.7295 11.4151V16.2394C16.7295 16.4978 16.5193 16.708 16.2609 16.708ZM11.4366 10.9761C11.1945 10.9761 10.9976 11.173 10.9976 11.4151V16.2394C10.9976 16.4814 11.1945 16.6783 11.4366 16.6783H16.2609C16.5029 16.6783 16.6998 16.4814 16.6998 16.2394V11.4151C16.6998 11.173 16.5029 10.9761 16.2609 10.9761H11.4366Z" fill="#D3B24F"/>
</g>
<defs>
<clipPath id="clip0_126_181">
<rect width="18" height="18" fill="white"/>
</clipPath>
</defs>
</svg>
